<mxfile host="app.diagrams.net" modified="2023-12-16T00:20:13.338Z" agent="Mozilla/5.0 (Windows NT 10.0; Win64; x64) AppleWebKit/537.36 (KHTML, like Gecko) Chrome/120.0.0.0 Safari/537.36" etag="DivVFGL3JI7H-y_OehKZ" version="22.1.11" type="device">
  <diagram name="Page-1" id="2YBvvXClWsGukQMizWep">
    <mxGraphModel dx="1434" dy="746" grid="1" gridSize="10" guides="1" tooltips="1" connect="1" arrows="1" fold="1" page="1" pageScale="1" pageWidth="850" pageHeight="1100" math="0" shadow="0">
      <root>
        <mxCell id="0" />
        <mxCell id="1" parent="0" />
        <mxCell id="-I8r2R4PaWdT_B2arK4X-3" value="Vehice&lt;br&gt;(Bus/Taxi)" style="shape=umlLifeline;perimeter=lifelinePerimeter;whiteSpace=wrap;html=1;container=1;dropTarget=0;collapsible=0;recursiveResize=0;outlineConnect=0;portConstraint=eastwest;newEdgeStyle={&quot;curved&quot;:0,&quot;rounded&quot;:0};" parent="1" vertex="1">
          <mxGeometry x="300" y="30" width="100" height="1030" as="geometry" />
        </mxCell>
        <mxCell id="-I8r2R4PaWdT_B2arK4X-10" value="" style="html=1;points=[[0,0,0,0,5],[0,1,0,0,-5],[1,0,0,0,5],[1,1,0,0,-5]];perimeter=orthogonalPerimeter;outlineConnect=0;targetShapes=umlLifeline;portConstraint=eastwest;newEdgeStyle={&quot;curved&quot;:0,&quot;rounded&quot;:0};" parent="-I8r2R4PaWdT_B2arK4X-3" vertex="1">
          <mxGeometry x="45" y="80" width="10" height="80" as="geometry" />
        </mxCell>
        <mxCell id="-I8r2R4PaWdT_B2arK4X-23" value="" style="html=1;points=[[0,0,0,0,5],[0,1,0,0,-5],[1,0,0,0,5],[1,1,0,0,-5]];perimeter=orthogonalPerimeter;outlineConnect=0;targetShapes=umlLifeline;portConstraint=eastwest;newEdgeStyle={&quot;curved&quot;:0,&quot;rounded&quot;:0};" parent="-I8r2R4PaWdT_B2arK4X-3" vertex="1">
          <mxGeometry x="45" y="200" width="10" height="80" as="geometry" />
        </mxCell>
        <mxCell id="-I8r2R4PaWdT_B2arK4X-27" value="" style="html=1;points=[[0,0,0,0,5],[0,1,0,0,-5],[1,0,0,0,5],[1,1,0,0,-5]];perimeter=orthogonalPerimeter;outlineConnect=0;targetShapes=umlLifeline;portConstraint=eastwest;newEdgeStyle={&quot;curved&quot;:0,&quot;rounded&quot;:0};" parent="-I8r2R4PaWdT_B2arK4X-3" vertex="1">
          <mxGeometry x="45" y="340" width="10" height="60" as="geometry" />
        </mxCell>
        <mxCell id="-I8r2R4PaWdT_B2arK4X-33" value="" style="html=1;points=[[0,0,0,0,5],[0,1,0,0,-5],[1,0,0,0,5],[1,1,0,0,-5]];perimeter=orthogonalPerimeter;outlineConnect=0;targetShapes=umlLifeline;portConstraint=eastwest;newEdgeStyle={&quot;curved&quot;:0,&quot;rounded&quot;:0};" parent="-I8r2R4PaWdT_B2arK4X-3" vertex="1">
          <mxGeometry x="45" y="530" width="10" height="80" as="geometry" />
        </mxCell>
        <mxCell id="-I8r2R4PaWdT_B2arK4X-6" value="Taxi" style="shape=umlLifeline;perimeter=lifelinePerimeter;whiteSpace=wrap;html=1;container=1;dropTarget=0;collapsible=0;recursiveResize=0;outlineConnect=0;portConstraint=eastwest;newEdgeStyle={&quot;curved&quot;:0,&quot;rounded&quot;:0};" parent="1" vertex="1">
          <mxGeometry x="510" y="30" width="100" height="1020" as="geometry" />
        </mxCell>
        <mxCell id="-I8r2R4PaWdT_B2arK4X-30" value="" style="html=1;points=[[0,0,0,0,5],[0,1,0,0,-5],[1,0,0,0,5],[1,1,0,0,-5]];perimeter=orthogonalPerimeter;outlineConnect=0;targetShapes=umlLifeline;portConstraint=eastwest;newEdgeStyle={&quot;curved&quot;:0,&quot;rounded&quot;:0};" parent="-I8r2R4PaWdT_B2arK4X-6" vertex="1">
          <mxGeometry x="45" y="390" width="10" height="80" as="geometry" />
        </mxCell>
        <mxCell id="-I8r2R4PaWdT_B2arK4X-7" value="" style="shape=umlLifeline;perimeter=lifelinePerimeter;whiteSpace=wrap;html=1;container=1;dropTarget=0;collapsible=0;recursiveResize=0;outlineConnect=0;portConstraint=eastwest;newEdgeStyle={&quot;curved&quot;:0,&quot;rounded&quot;:0};participant=umlActor;" parent="1" vertex="1">
          <mxGeometry x="70" y="40" width="20" height="1040" as="geometry" />
        </mxCell>
        <mxCell id="-I8r2R4PaWdT_B2arK4X-11" value="Actor requests to check readiness to depart" style="html=1;verticalAlign=bottom;startArrow=oval;endArrow=block;startSize=8;curved=0;rounded=0;entryX=0;entryY=0;entryDx=0;entryDy=5;" parent="1" source="-I8r2R4PaWdT_B2arK4X-7" target="-I8r2R4PaWdT_B2arK4X-10" edge="1">
          <mxGeometry relative="1" as="geometry">
            <mxPoint x="110" y="145" as="sourcePoint" />
          </mxGeometry>
        </mxCell>
        <mxCell id="-I8r2R4PaWdT_B2arK4X-12" value="isReadyToDepart()" style="html=1;verticalAlign=bottom;endArrow=open;dashed=1;endSize=8;curved=0;rounded=0;" parent="1" source="-I8r2R4PaWdT_B2arK4X-3" target="-I8r2R4PaWdT_B2arK4X-7" edge="1">
          <mxGeometry relative="1" as="geometry">
            <mxPoint x="220" y="180" as="sourcePoint" />
            <mxPoint x="140" y="180" as="targetPoint" />
            <Array as="points">
              <mxPoint x="220" y="180" />
            </Array>
            <mxPoint as="offset" />
          </mxGeometry>
        </mxCell>
        <mxCell id="-I8r2R4PaWdT_B2arK4X-24" value="Actor requests to check driver&#39;s readiness" style="html=1;verticalAlign=bottom;endArrow=block;curved=0;rounded=0;entryX=0;entryY=0;entryDx=0;entryDy=5;" parent="1" source="-I8r2R4PaWdT_B2arK4X-7" target="-I8r2R4PaWdT_B2arK4X-23" edge="1">
          <mxGeometry x="-0.0014" relative="1" as="geometry">
            <mxPoint x="195" y="475" as="sourcePoint" />
            <mxPoint as="offset" />
          </mxGeometry>
        </mxCell>
        <mxCell id="-I8r2R4PaWdT_B2arK4X-25" value="isDriverReady()" style="html=1;verticalAlign=bottom;endArrow=open;dashed=1;endSize=8;curved=0;rounded=0;exitX=0;exitY=1;exitDx=0;exitDy=-5;" parent="1" source="-I8r2R4PaWdT_B2arK4X-23" target="-I8r2R4PaWdT_B2arK4X-7" edge="1">
          <mxGeometry relative="1" as="geometry">
            <mxPoint x="195" y="545" as="targetPoint" />
          </mxGeometry>
        </mxCell>
        <mxCell id="-I8r2R4PaWdT_B2arK4X-28" value="Actor requested additional child seats" style="html=1;verticalAlign=bottom;endArrow=block;curved=0;rounded=0;entryX=0;entryY=0;entryDx=0;entryDy=5;" parent="1" source="-I8r2R4PaWdT_B2arK4X-7" target="-I8r2R4PaWdT_B2arK4X-27" edge="1">
          <mxGeometry relative="1" as="geometry">
            <mxPoint x="-70.18965517241395" y="605" as="sourcePoint" />
          </mxGeometry>
        </mxCell>
        <mxCell id="-I8r2R4PaWdT_B2arK4X-31" value="true" style="html=1;verticalAlign=bottom;endArrow=block;curved=0;rounded=0;entryX=0;entryY=0;entryDx=0;entryDy=5;" parent="1" source="-I8r2R4PaWdT_B2arK4X-27" target="-I8r2R4PaWdT_B2arK4X-30" edge="1">
          <mxGeometry relative="1" as="geometry">
            <mxPoint x="345" y="665" as="sourcePoint" />
          </mxGeometry>
        </mxCell>
        <mxCell id="-I8r2R4PaWdT_B2arK4X-32" value="addChildSeat()" style="html=1;verticalAlign=bottom;endArrow=open;dashed=1;endSize=8;curved=0;rounded=0;exitX=0;exitY=1;exitDx=0;exitDy=-5;" parent="1" source="-I8r2R4PaWdT_B2arK4X-30" target="-I8r2R4PaWdT_B2arK4X-7" edge="1">
          <mxGeometry x="-0.0001" relative="1" as="geometry">
            <mxPoint x="345" y="735" as="targetPoint" />
            <mxPoint as="offset" />
          </mxGeometry>
        </mxCell>
        <mxCell id="-I8r2R4PaWdT_B2arK4X-34" value="Actor requests to check the number of customers" style="html=1;verticalAlign=bottom;endArrow=block;curved=0;rounded=0;entryX=0;entryY=0;entryDx=0;entryDy=5;" parent="1" source="-I8r2R4PaWdT_B2arK4X-7" target="-I8r2R4PaWdT_B2arK4X-33" edge="1">
          <mxGeometry relative="1" as="geometry">
            <mxPoint x="275" y="915" as="sourcePoint" />
          </mxGeometry>
        </mxCell>
        <mxCell id="-I8r2R4PaWdT_B2arK4X-35" value="getPassengerCount()" style="html=1;verticalAlign=bottom;endArrow=open;dashed=1;endSize=8;curved=0;rounded=0;exitX=0;exitY=1;exitDx=0;exitDy=-5;" parent="1" source="-I8r2R4PaWdT_B2arK4X-33" target="-I8r2R4PaWdT_B2arK4X-7" edge="1">
          <mxGeometry x="0.0019" relative="1" as="geometry">
            <mxPoint x="275" y="985" as="targetPoint" />
            <mxPoint as="offset" />
          </mxGeometry>
        </mxCell>
      </root>
    </mxGraphModel>
  </diagram>
</mxfile>
